<?xml version="1.0" standalone="no"?>
<!DOCTYPE svg PUBLIC "-//W3C//DTD SVG 20010904//EN"
 "http://www.w3.org/TR/2001/REC-SVG-20010904/DTD/svg10.dtd">
<svg version="1.0" xmlns="http://www.w3.org/2000/svg"
 width="512.000000pt" height="512.000000pt" viewBox="0 0 512.000000 512.000000"
 preserveAspectRatio="xMidYMid meet">

<g transform="translate(0.000000,512.000000) scale(0.100000,-0.100000)"
fill="#000000" stroke="none">
<path d="M1862 4115 c-179 -40 -331 -163 -408 -330 -42 -91 -57 -168 -56 -285
1 -121 28 -227 87 -345 90 -181 190 -288 815 -869 47 -44 100 -94 119 -112
l34 -33 -80 -84 c-91 -97 -147 -176 -182 -262 -22 -52 -26 -75 -26 -172 0 -62
-3 -113 -6 -113 -3 0 -16 15 -29 32 -29 39 -118 139 -385 433 -259 285 -319
355 -370 434 -115 179 -123 351 -25 544 22 43 40 81 40 86 0 12 -48 31 -79 31
-24 0 -35 -10 -70 -64 -181 -277 -155 -547 78 -827 81 -99 278 -316 595 -659
357 -386 410 -440 427 -440 10 0 30 10 44 23 l26 22 -41 70 c-108 186 -108
377 0 560 37 62 204 245 224 245 15 0 120 -108 176 -179 155 -201 171 -418 45
-622 -19 -31 -35 -62 -35 -68 0 -16 42 -51 61 -51 30 0 888 944 1041 1146 141
185 187 369 138 558 -34 135 -127 286 -175 286 -33 0 -75 -17 -75 -31 0 -6 18
-48 40 -92 92 -186 88 -359 -11 -521 -63 -101 -118 -168 -564 -671 -82 -94
-163 -187 -180 -207 l-30 -36 -1 106 c0 89 -5 118 -25 172 -34 89 -89 169
-183 267 l-79 83 134 127 c257 243 656 649 707 718 70 95 137 232 163 335 28
109 23 291 -10 383 -79 224 -246 370 -470 414 -144 28 -294 -2 -437 -88 -65
-40 -192 -163 -220 -214 -10 -19 -21 -35 -24 -35 -3 0 -20 23 -39 51 -79 116
-240 232 -381 273 -79 24 -221 29 -298 11z m270 -155 c118 -36 245 -143 325
-272 l36 -58 81 0 81 1 33 55 c46 76 132 166 204 214 134 89 306 106 441 42
198 -92 308 -312 264 -526 -21 -100 -73 -211 -142 -302 -60 -78 -292 -308
-633 -628 l-222 -208 -77 68 c-163 147 -641 589 -693 643 -196 201 -270 346
-270 525 0 320 279 537 572 446z"/>
</g>
</svg>
