<svg version="1.1" id="Layer_1" xmlns="http://www.w3.org/2000/svg" xmlns:xlink="http://www.w3.org/1999/xlink" x="0px" y="0px"
	 width="100%" viewBox="0 0 512 512" enable-background="new 0 0 512 512" xml:space="preserve">
<path fill="#000000" opacity="1.000000" stroke="none" 
	d="
M292.000000,513.000000 
	C196.023300,513.000000 100.546577,512.979980 5.069989,513.084900 
	C1.800029,513.088501 0.894547,512.639221 0.897057,509.071777 
	C1.015221,341.112823 1.016794,173.153793 0.892003,5.194884 
	C0.889213,1.440334 1.845027,0.913238 5.303172,0.915236 
	C173.095520,1.012172 340.887909,1.011479 508.680267,0.919031 
	C512.093567,0.917150 513.114197,1.377905 513.111267,5.178299 
	C512.982422,173.137222 512.985168,341.096252 513.101074,509.055206 
	C513.103516,512.588806 512.252319,513.093384 508.946533,513.088135 
	C436.797821,512.972534 364.648895,513.000000 292.000000,513.000000 
z"/>
<path fill="#9A4A4E" opacity="1.000000" stroke="none" 
	d="
M292.239563,400.259491 
	C290.929596,401.574799 289.722626,402.526672 288.838440,403.718018 
	C285.947113,407.613831 282.998901,405.790436 280.365967,403.667542 
	C277.383514,401.262756 277.700317,398.507263 279.983948,395.498688 
	C291.665283,380.109009 294.126221,355.579346 281.786835,338.588409 
	C275.763428,330.294373 270.050476,322.103699 262.098480,315.585022 
	C260.553436,314.318512 259.660889,313.819885 258.015442,315.428650 
	C248.311508,324.915833 238.894638,334.578156 233.781738,347.538757 
	C228.614319,360.637543 228.992371,373.535583 235.090851,386.205627 
	C236.870346,389.902618 238.686218,393.668915 241.103592,396.947662 
	C243.520569,400.225861 241.806274,402.038940 239.585632,403.830750 
	C237.384064,405.607239 234.916931,407.489532 232.193115,404.664612 
	C224.244019,396.420349 216.292145,388.176971 208.463562,379.818817 
	C201.564148,372.452637 195.062012,364.700653 187.947311,357.554230 
	C182.362061,351.944061 177.516632,345.698181 171.845718,340.151855 
	C165.123093,333.576935 158.931534,326.427429 152.836899,319.249207 
	C142.927017,307.577484 131.701691,296.971405 123.458733,283.942261 
	C117.318985,274.237518 113.586594,263.862366 112.784607,252.071396 
	C111.618965,234.934265 118.111351,220.776169 127.321991,207.291489 
	C129.635498,203.904449 138.536697,204.614182 140.487152,208.257935 
	C141.649323,210.429016 139.915665,211.934937 138.929077,213.599197 
	C133.910172,222.065598 130.548874,231.078720 129.981476,241.002823 
	C129.162720,255.323273 135.047699,267.211487 143.575760,278.077271 
	C152.978882,290.057953 163.542755,301.023254 173.691208,312.356903 
	C187.247894,327.496796 201.442444,342.068665 214.356628,357.783691 
	C214.542053,358.009308 214.934128,358.065155 215.705307,358.417542 
	C216.334625,352.740356 215.699402,347.177429 216.765793,341.639557 
	C218.670349,331.749176 223.774643,323.713867 229.607468,315.955048 
	C233.666412,310.555817 238.292114,305.634552 243.360596,301.162781 
	C245.218613,299.523499 244.995438,298.322327 243.268967,296.742523 
	C230.810806,285.342438 218.407547,273.882385 205.988388,262.439697 
	C205.498245,261.988129 205.019440,261.524017 204.541626,261.059296 
	C192.667770,249.511169 180.591995,238.161682 168.977692,226.358109 
	C156.959366,214.143906 146.718399,200.194550 142.550980,183.569687 
	C136.231461,158.359695 138.960922,134.317917 159.300949,115.333473 
	C168.619553,106.635925 179.704575,101.239441 192.677109,99.943466 
	C220.246414,97.189270 240.568695,109.513985 256.637512,130.519333 
	C258.678345,133.187149 259.179138,133.079529 260.905304,130.646561 
	C269.752747,118.176079 280.804504,108.352112 295.454254,103.255180 
	C313.265778,97.058197 330.588440,98.103203 347.095642,107.635078 
	C362.813049,116.710899 372.389252,130.451782 376.419250,147.921188 
	C379.964447,163.289124 378.006500,178.272491 372.077209,192.891113 
	C365.759033,208.468521 355.360840,221.138306 343.883667,232.966324 
	C331.597168,245.628372 319.033356,258.038727 306.211853,270.158325 
	C297.036835,278.831055 288.112457,287.758209 278.896088,296.370178 
	C275.880280,299.188232 276.532410,300.295593 278.968475,302.534760 
	C284.705170,307.807800 290.063049,313.476593 294.400055,319.980347 
	C301.114380,330.049225 305.400391,340.937500 304.999573,353.303986 
	C304.964050,354.400299 304.678467,355.620178 305.951355,357.039032 
	C308.019684,354.808136 310.098419,352.664246 312.068726,350.424957 
	C326.352875,334.190826 340.452118,317.790100 354.944397,301.744293 
	C363.909393,291.818207 372.586426,281.701721 379.934814,270.525940 
	C386.104980,261.142120 389.127930,250.704102 387.887512,239.505707 
	C386.840057,230.049164 383.758911,221.060440 378.202850,213.207642 
	C376.174744,210.341171 376.721771,208.289322 379.109009,206.556625 
	C382.967590,203.756012 388.063904,204.705078 391.015259,208.475998 
	C400.650299,220.786621 406.168854,234.710556 405.900543,250.383240 
	C405.647156,265.185638 399.769226,278.149475 390.745300,289.727539 
	C381.003571,302.226593 370.376923,313.961456 359.824127,325.772552 
	C347.703339,339.338593 335.518188,352.842621 323.306549,366.326324 
	C313.090973,377.606018 303.005463,389.000793 292.239563,400.259491 
z"/>
<path fill="#000000" opacity="1.000000" stroke="none" 
	d="
M159.913651,146.068115 
	C165.761734,130.590134 175.791977,119.901489 192.005432,116.605736 
	C203.239594,114.322136 213.989410,116.101753 224.068481,122.335136 
	C234.048523,128.507278 241.495712,136.799393 247.328857,146.751297 
	C249.155563,149.867828 251.600067,150.677124 255.258987,151.226990 
	C264.200012,152.570694 268.727875,148.379822 273.146973,141.330215 
	C280.904510,128.954956 291.762207,119.759743 306.518036,116.884415 
	C321.536072,113.957977 334.862335,116.730881 346.457825,128.249542 
	C357.004517,138.726364 361.416168,150.863174 360.901459,165.071091 
	C360.545990,174.883179 357.061920,183.957169 351.850647,192.304306 
	C340.804565,209.997177 325.257935,223.526245 310.098755,237.414551 
	C308.871552,238.538879 307.756714,239.785049 306.544006,240.926132 
	C292.061981,254.552887 277.520905,268.117706 263.143311,281.853607 
	C261.227997,283.683411 260.231415,283.674500 258.403534,281.975006 
	C245.780945,270.238831 233.208908,258.442596 220.361542,246.955399 
	C206.033371,234.144119 192.093109,220.941589 178.681396,207.181458 
	C168.978500,197.226501 161.555740,185.915604 158.574020,172.099838 
	C156.707794,163.452667 156.796967,154.879639 159.913651,146.068115 
z"/>
</svg>